<!DOCTYPE svg PUBLIC "-//W3C//DTD SVG 20010904//EN" "http://www.w3.org/TR/2001/REC-SVG-20010904/DTD/svg10.dtd">
<svg version="1.0" xmlns="http://www.w3.org/2000/svg" width="28px" height="46px" viewBox="0 0 280 460" preserveAspectRatio="xMidYMid meet">
<g id="layer101" fill="#9fa9a9" stroke="none">
 <path d="M25 428 c-3 -8 -4 -101 -3 -208 l3 -195 115 0 115 0 0 205 0 205 -113 3 c-86 2 -114 0 -117 -10z m205 -198 l0 -180 -90 0 -90 0 0 180 0 180 90 0 90 0 0 -180z"/>
 <path d="M80 230 l0 -150 60 0 60 0 0 150 0 150 -60 0 -60 0 0 -150z m90 0 l0 -120 -30 0 -30 0 0 120 0 120 30 0 30 0 0 -120z"/>
 </g>

</svg>