<!DOCTYPE svg PUBLIC "-//W3C//DTD SVG 20010904//EN" "http://www.w3.org/TR/2001/REC-SVG-20010904/DTD/svg10.dtd">
<svg version="1.0" xmlns="http://www.w3.org/2000/svg" width="54px" height="46px" viewBox="0 0 540 460" preserveAspectRatio="xMidYMid meet">
<g id="layer101" fill="#9fa9a9" stroke="none">
 <path d="M32 428 c-17 -17 -17 -299 0 -316 7 -7 34 -12 60 -12 42 0 48 -3 48 -21 0 -11 5 -29 10 -40 10 -17 22 -19 115 -19 93 0 105 2 115 19 5 11 10 29 10 40 0 17 8 20 52 23 44 3 54 7 65 28 18 35 13 271 -6 293 -12 15 -41 17 -235 17 -159 0 -225 -3 -234 -12z m436 -30 c7 -7 12 -38 12 -70 l0 -58 -79 0 -80 0 -3 33 c-3 30 -5 32 -47 35 -47 4 -61 -6 -61 -45 0 -22 -4 -23 -80 -23 l-80 0 0 58 c0 32 5 63 12 70 17 17 389 17 406 0z m-188 -108 c0 -11 -7 -20 -15 -20 -8 0 -15 9 -15 20 0 11 7 20 15 20 8 0 15 -9 15 -20z m200 -93 c0 -24 -5 -48 -12 -55 -7 -7 -36 -12 -64 -12 l-53 0 -3 -37 -3 -38 -80 0 -80 0 -3 38 -3 37 -53 0 c-28 0 -57 5 -64 12 -7 7 -12 31 -12 55 l0 43 215 0 215 0 0 -43z"/>
 <path d="M210 110 c0 -18 7 -20 55 -20 48 0 55 2 55 20 0 18 -7 20 -55 20 -48 0 -55 -2 -55 -20z"/>
 </g>

</svg>