<!DOCTYPE svg PUBLIC "-//W3C//DTD SVG 20010904//EN" "http://www.w3.org/TR/2001/REC-SVG-20010904/DTD/svg10.dtd">
<svg version="1.0" xmlns="http://www.w3.org/2000/svg" width="55px" height="48px" viewBox="0 0 550 480" preserveAspectRatio="xMidYMid meet">
<g id="layer101" fill="#9fa9a9" stroke="none">
 <path d="M167 449 c-45 -26 -62 -117 -27 -142 19 -13 20 -16 5 -31 -19 -19 -37 -20 -52 -5 -6 6 -23 9 -39 7 -23 -2 -30 -8 -32 -32 -2 -15 2 -41 8 -57 18 -42 92 -106 141 -121 24 -7 52 -21 61 -30 23 -23 49 -23 81 2 14 11 30 20 36 20 47 0 140 81 166 143 26 63 -17 101 -75 65 -16 -11 -23 -8 -48 15 -15 15 -38 27 -50 27 -19 0 -22 5 -22 46 0 61 -40 104 -97 104 -21 0 -46 -5 -56 -11z m89 -42 c24 -21 27 -32 32 -100 2 -42 9 -77 13 -77 5 0 17 9 26 19 16 20 17 19 46 -5 33 -28 63 -31 95 -8 27 19 27 14 2 -36 -24 -48 -71 -84 -130 -101 -25 -7 -49 -19 -53 -26 -11 -18 -27 -16 -27 2 0 9 -9 15 -23 15 -40 0 -126 50 -152 88 -31 45 -33 67 -6 52 31 -16 58 -12 88 14 l28 24 30 -26 30 -25 3 72 c2 45 -2 78 -9 87 -18 22 -48 17 -61 -11 -14 -32 -28 -32 -28 -1 0 23 40 66 61 66 4 0 20 -10 35 -23z"/>
 </g>

</svg>