<!DOCTYPE svg PUBLIC "-//W3C//DTD SVG 20010904//EN" "http://www.w3.org/TR/2001/REC-SVG-20010904/DTD/svg10.dtd">
<svg version="1.0" xmlns="http://www.w3.org/2000/svg" width="55px" height="46px" viewBox="0 0 550 460" preserveAspectRatio="xMidYMid meet">
<g id="layer101" fill="#9fa9a9" stroke="none">
 <path d="M37 422 c-23 -25 -21 -65 3 -87 15 -13 20 -31 20 -67 0 -54 24 -111 62 -144 52 -48 79 -57 174 -65 65 -4 101 -12 113 -23 10 -9 32 -16 49 -16 45 0 72 45 72 120 0 118 -46 194 -149 247 -51 27 -74 33 -126 33 -35 0 -75 -4 -88 -9 -20 -8 -29 -6 -43 10 -22 24 -66 25 -87 1z m69 -39 l21 -27 57 18 c65 21 106 16 175 -19 85 -43 132 -115 132 -204 1 -47 -15 -101 -28 -101 -5 0 -21 9 -38 20 -21 14 -47 20 -90 20 -85 0 -131 16 -180 61 -46 43 -65 92 -57 148 3 25 0 36 -17 47 -20 15 -28 44 -14 57 11 11 16 8 39 -20z"/>
 <path d="M140 294 c0 -19 51 -69 93 -90 32 -17 127 -30 151 -21 26 10 7 37 -26 37 -51 0 -106 21 -147 57 -42 36 -71 43 -71 17z"/>
 </g>

</svg>