<!DOCTYPE svg PUBLIC "-//W3C//DTD SVG 20010904//EN" "http://www.w3.org/TR/2001/REC-SVG-20010904/DTD/svg10.dtd">
<svg version="1.0" xmlns="http://www.w3.org/2000/svg" width="53px" height="48px" viewBox="0 0 530 480" preserveAspectRatio="xMidYMid meet">
<g id="layer101" fill="#9fa9a9" stroke="none">
 <path d="M143 368 c-103 -105 -123 -138 -123 -203 0 -64 23 -103 73 -126 52 -23 81 -23 131 -1 38 17 41 17 78 -1 113 -56 231 49 197 176 -15 57 -199 247 -239 247 -19 0 -48 -23 -117 -92z m308 -146 c27 -55 20 -101 -22 -136 -39 -33 -85 -34 -133 -1 l-36 24 -36 -24 c-67 -46 -143 -22 -163 50 -17 62 2 98 105 203 l94 97 85 -85 c47 -47 95 -104 106 -128z"/>
 </g>

</svg>