<!DOCTYPE svg PUBLIC "-//W3C//DTD SVG 20010904//EN" "http://www.w3.org/TR/2001/REC-SVG-20010904/DTD/svg10.dtd">
<svg version="1.0" xmlns="http://www.w3.org/2000/svg" width="43px" height="37px" viewBox="0 0 430 370" preserveAspectRatio="xMidYMid meet">
<g id="layer101" fill="#8c9494" stroke="none">
 <path d="M31 336 c-14 -17 -13 -285 2 -303 7 -10 56 -13 183 -13 165 0 174 1 184 21 8 14 8 29 2 48 -6 17 -6 34 -1 42 12 20 11 176 -1 200 -10 18 -23 19 -184 19 -136 0 -176 -3 -185 -14z m335 -29 c3 -8 4 -44 2 -81 l-3 -67 -60 45 c-79 60 -104 60 -184 1 -34 -25 -63 -45 -66 -45 -7 0 -6 125 1 144 5 14 29 16 155 16 116 0 151 -3 155 -13z m-82 -154 c70 -52 93 -80 79 -94 -5 -5 -74 -8 -154 -7 -135 3 -144 4 -144 23 0 18 125 125 146 125 5 0 38 -21 73 -47z"/>
 </g>

</svg>